<svg width="160" height="160" viewBox="0 0 160 160" fill="none" xmlns="http://www.w3.org/2000/svg">
<path d="M157.664 146.344C158.408 147.088 158.997 147.97 159.4 148.941C159.802 149.912 160.009 150.953 160.009 152.004C160.009 153.056 159.802 154.096 159.4 155.068C158.997 156.039 158.408 156.921 157.664 157.664C156.921 158.408 156.039 158.997 155.068 159.4C154.096 159.802 153.056 160.009 152.004 160.009C150.953 160.009 149.912 159.802 148.941 159.4C147.97 158.997 147.088 158.408 146.344 157.664L80.0044 91.3144L13.6644 157.664C12.1633 159.166 10.1274 160.009 8.00445 160.009C5.88154 160.009 3.84557 159.166 2.34445 157.664C0.843323 156.163 4.18477e-08 154.127 0 152.004C-4.18477e-08 149.882 0.843323 147.846 2.34445 146.344L68.6945 80.0044L2.34445 13.6644C0.843323 12.1633 -1.58169e-08 10.1274 0 8.00445C1.58169e-08 5.88154 0.843323 3.84557 2.34445 2.34445C3.84557 0.843323 5.88154 1.58169e-08 8.00445 0C10.1274 -1.58169e-08 12.1633 0.843323 13.6644 2.34445L80.0044 68.6945L146.344 2.34445C147.846 0.843323 149.882 -4.18477e-08 152.004 0C154.127 4.18477e-08 156.163 0.843323 157.664 2.34445C159.166 3.84557 160.009 5.88154 160.009 8.00445C160.009 10.1274 159.166 12.1633 157.664 13.6644L91.3144 80.0044L157.664 146.344Z" fill="#A2A2A2"/>
</svg>
