<svg width="167" height="185" viewBox="0 0 167 185" fill="none" xmlns="http://www.w3.org/2000/svg">
<path d="M68.0404 3.5126L105.493 181.588C105.754 182.831 104.806 184 103.536 184H95.8228C94.8871 184 94.0765 183.351 93.8714 182.438L67.6524 65.7085C67.4473 64.7955 66.6367 64.1468 65.701 64.1468H4.99718C3.19213 64.1468 2.31068 61.9444 3.6173 60.6991L64.7033 2.4765C65.8375 1.39548 67.7179 1.97931 68.0404 3.5126Z" fill="#FFA800" stroke="white"/>
<path d="M116.622 184L103 123.077L121.73 118L126.838 151.846L145.568 134.923L166 140V184H152.378L145.568 173.846V155.231L116.622 184Z" fill="#FFA800" stroke="white"/>
<path d="M113.5 48L163 63.075L151.45 88.2L125.05 71.45L139.9 88.2V108.3H131.65L100.3 115V108.3L105.25 98.25L120.1 93.225L97 63.075L113.5 48Z" fill="#FFA800" stroke="white"/>
<path d="M84.2471 168.982C77.9571 170.487 71.4324 170.737 65.0456 169.719C58.6588 168.702 52.5349 166.436 47.0237 163.052C41.5124 159.668 36.7217 155.231 32.9251 149.996C29.1284 144.76 26.4002 138.828 24.8961 132.538C23.3921 126.248 23.1416 119.723 24.1591 113.336C25.1767 106.95 27.4422 100.826 30.8264 95.3146C34.2106 89.8034 38.6471 85.0127 43.8828 81.216C49.1184 77.4193 55.0506 74.6911 61.3406 73.187L72.7938 121.085L84.2471 168.982Z" fill="#FFA800"/>
<circle cx="36" cy="118" r="9" fill="white"/>
<circle cx="57" cy="115" r="9" fill="white"/>
<circle cx="6" cy="6" r="6" transform="matrix(1 0 0 -1 30 124)" fill="black"/>
<circle cx="6" cy="6" r="6" transform="matrix(1 0 0 -1 51 121)" fill="black"/>
<circle cx="1.5" cy="1.5" r="1.5" transform="matrix(1 0 0 -1 30 118)" fill="white"/>
<circle cx="1.5" cy="1.5" r="1.5" transform="matrix(1 0 0 -1 51 115)" fill="white"/>
</svg>
