<svg width="46" height="46" viewBox="0 0 46 46" fill="none" xmlns="http://www.w3.org/2000/svg">
<path d="M39.813 19.4636L37.191 11.5976C36.8106 10.4523 36.079 9.4561 35.1001 8.75039C34.1212 8.04469 32.9448 7.66543 31.7381 7.66651H14.2619C13.0551 7.66543 11.8787 8.04469 10.8998 8.75039C9.92094 9.4561 9.18934 10.4523 8.80898 11.5976L6.18698 19.4636C5.48974 19.7553 4.8943 20.2467 4.47552 20.8759C4.05674 21.5051 3.83331 22.244 3.83331 22.9998V32.5832C3.83331 33.9977 4.60765 35.2205 5.74998 35.8856V40.2498C5.74998 40.7582 5.95191 41.2457 6.31136 41.6051C6.6708 41.9646 7.15831 42.1665 7.66665 42.1665H9.58331C10.0916 42.1665 10.5792 41.9646 10.9386 41.6051C11.298 41.2457 11.5 40.7582 11.5 40.2498V36.4165H34.5V40.2498C34.5 40.7582 34.7019 41.2457 35.0614 41.6051C35.4208 41.9646 35.9083 42.1665 36.4166 42.1665H38.3333C38.8416 42.1665 39.3292 41.9646 39.6886 41.6051C40.048 41.2457 40.25 40.7582 40.25 40.2498V35.8856C40.8315 35.5521 41.3148 35.0713 41.6513 34.4915C41.9878 33.9117 42.1655 33.2535 42.1666 32.5832V22.9998C42.1666 22.244 41.9432 21.5051 41.5244 20.8759C41.1057 20.2467 40.5102 19.7553 39.813 19.4636ZM14.2619 11.4998H31.7361C32.5622 11.4998 33.2944 12.025 33.5551 12.8108L35.6749 19.1665H10.3251L12.443 12.8108C12.5701 12.429 12.8143 12.0969 13.1407 11.8616C13.4672 11.6263 13.8595 11.4997 14.2619 11.4998ZM10.5416 30.6665C10.164 30.6664 9.79002 30.5919 9.44114 30.4472C9.09226 30.3026 8.77529 30.0906 8.50832 29.8235C8.24135 29.5563 8.02961 29.2392 7.8852 28.8902C7.74078 28.5413 7.66652 28.1673 7.66665 27.7896C7.66677 27.4119 7.74129 27.038 7.88593 26.6891C8.03058 26.3402 8.24253 26.0232 8.50967 25.7563C8.77682 25.4893 9.09393 25.2776 9.44291 25.1331C9.79188 24.9887 10.1659 24.9145 10.5436 24.9146C11.3063 24.9148 12.0377 25.2181 12.5769 25.7576C13.1161 26.2971 13.4188 27.0288 13.4186 27.7915C13.4183 28.5543 13.1151 29.2857 12.5755 29.8248C12.036 30.364 11.3044 30.6668 10.5416 30.6665ZM35.4583 30.6665C35.0806 30.6664 34.7067 30.5919 34.3578 30.4472C34.0089 30.3026 33.692 30.0906 33.425 29.8235C33.158 29.5563 32.9463 29.2392 32.8019 28.8902C32.6574 28.5413 32.5832 28.1673 32.5833 27.7896C32.5834 27.4119 32.658 27.038 32.8026 26.6891C32.9472 26.3402 33.1592 26.0232 33.4263 25.7563C33.6935 25.4893 34.0106 25.2776 34.3596 25.1331C34.7086 24.9887 35.0826 24.9145 35.4602 24.9146C36.223 24.9148 36.9544 25.2181 37.4936 25.7576C38.0327 26.2971 38.3355 27.0288 38.3352 27.7915C38.335 28.5543 38.0317 29.2857 37.4922 29.8248C36.9527 30.364 36.2211 30.6668 35.4583 30.6665Z" fill="black"/>
</svg>
