<svg width="24" height="24" viewBox="0 0 24 24" fill="none" xmlns="http://www.w3.org/2000/svg">
<circle cx="12" cy="12" r="11.5" fill="white" stroke="#DEDEDE"/>
<path d="M15.8315 15.0232C15.9388 15.1305 15.999 15.2761 15.999 15.4278C15.999 15.5796 15.9388 15.7251 15.8315 15.8324C15.7241 15.9397 15.5786 16 15.4268 16C15.2751 16 15.1295 15.9397 15.0222 15.8324L12 12.8094L8.97682 15.8315C8.86951 15.9388 8.72397 15.999 8.57221 15.999C8.42045 15.999 8.27491 15.9388 8.1676 15.8315C8.06029 15.7242 8 15.5786 8 15.4269C8 15.2751 8.06029 15.1296 8.1676 15.0223L11.1908 12.0002L8.16855 8.97724C8.06124 8.86994 8.00095 8.7244 8.00095 8.57265C8.00095 8.4209 8.06124 8.27537 8.16855 8.16806C8.27586 8.06076 8.4214 8.00048 8.57316 8.00048C8.72492 8.00048 8.87047 8.06076 8.97778 8.16806L12 11.1911L15.0232 8.16759C15.1305 8.06028 15.276 8 15.4278 8C15.5795 8 15.7251 8.06028 15.8324 8.16759C15.9397 8.27489 16 8.42043 16 8.57218C16 8.72393 15.9397 8.86946 15.8324 8.97677L12.8092 12.0002L15.8315 15.0232Z" fill="#959595"/>
</svg>
