<svg width="123" height="136" viewBox="0 0 123 136" fill="none" xmlns="http://www.w3.org/2000/svg">
<path d="M49.9187 3.52489L76.9542 132.59C77.2145 133.833 76.2662 135 74.9967 135H70.4545C69.5181 135 68.7071 134.35 68.5027 133.437L49.5301 48.6276C49.3257 47.7138 48.5146 47.0642 47.5783 47.0642H4.98264C3.17955 47.0642 2.29716 44.8659 3.59985 43.6193L46.5784 2.48998C47.7122 1.40493 49.5969 1.98886 49.9187 3.52489Z" fill="#FFA800" stroke="#FFA800"/>
<path d="M85.2948 135L75.2461 90.0567L89.0631 86.3115L92.8314 111.28L106.648 98.7957L121.722 102.541V135H111.673L106.648 127.509V113.777L85.2948 135Z" fill="#FFA800" stroke="#FFA800"/>
<path d="M82.9917 35.4098L119.508 46.3647L110.988 64.6229L91.5122 52.4508L102.467 64.6229V79.2295H96.3811L73.254 84.0983V79.2295L76.9056 71.9262L87.8606 68.2746L70.8196 46.3647L82.9917 35.4098Z" fill="#FFA800" stroke="#FFA800"/>
<path d="M61.7748 123.908C57.1626 125.011 52.3783 125.195 47.6951 124.449C43.0119 123.703 38.5216 122.041 34.4804 119.56C30.4392 117.078 26.9264 113.825 24.1424 109.986C21.3585 106.147 19.358 101.797 18.2551 97.1849C17.1522 92.5727 16.9686 87.7884 17.7147 83.1052C18.4608 78.422 20.122 73.9317 22.6035 69.8905C25.085 65.8493 28.3382 62.3364 32.1773 59.5525C36.0164 56.7686 40.3662 54.7681 44.9784 53.6652L53.3766 88.7867L61.7748 123.908Z" fill="#FFA800"/>
<path d="M17.304 105.295C17.3154 104.103 17.5615 102.925 18.0282 101.828C18.4949 100.731 19.1732 99.7366 20.0242 98.9016C20.8753 98.0667 21.8824 97.4075 22.9882 96.9618C24.094 96.5161 25.2767 96.2926 26.4689 96.304C27.6611 96.3153 28.8393 96.5614 29.9364 97.0282C31.0335 97.4949 32.0278 98.1732 32.8628 99.0242C33.6977 99.8752 34.3569 100.882 34.8026 101.988C35.2483 103.094 35.4718 104.277 35.4604 105.469L26.3822 105.382L17.304 105.295Z" fill="black"/>
<circle cx="26.5573" cy="86.3115" r="6.63934" fill="white"/>
<circle cx="42.0493" cy="84.0984" r="6.63934" fill="white"/>
<circle cx="4.42623" cy="4.42623" r="4.42623" transform="matrix(1 0 0 -1 22.1311 90.7377)" fill="black"/>
<circle cx="4.42623" cy="4.42623" r="4.42623" transform="matrix(1 0 0 -1 37.6228 88.5246)" fill="black"/>
<circle cx="1.10656" cy="1.10656" r="1.10656" transform="matrix(1 0 0 -1 22.1311 86.3115)" fill="white"/>
<circle cx="1.10656" cy="1.10656" r="1.10656" transform="matrix(1 0 0 -1 37.6228 84.0984)" fill="white"/>
</svg>
