<svg width="314" height="74" viewBox="0 0 314 74" fill="none" xmlns="http://www.w3.org/2000/svg">
<rect opacity="0.23" x="0.5" y="0.5" width="313" height="73" rx="12.5" fill="white" stroke="#808080"/>
<path d="M36.0469 42.1562C33.6875 42.1562 31.9688 40.7656 31.9219 38.8125H34.2031C34.25 39.7031 35.0625 40.2969 36.0469 40.2969C37.2188 40.2969 38.0469 39.4688 38.0469 38.2969C38.0469 37.0938 37.2031 36.2656 36.0156 36.25C35.1719 36.25 34.5781 36.5625 34.2344 37.2031H32.1094L32.7188 30.6875H39.6875V32.6094H34.6562L34.3438 35.4688H34.4375C34.8594 34.9062 35.7031 34.5156 36.7031 34.5156C38.7812 34.5156 40.3281 36.0625 40.3281 38.2344C40.3281 40.5156 38.5938 42.1562 36.0469 42.1562ZM42.9375 42.1406C42.2031 42.1406 41.6094 41.5469 41.625 40.8281C41.6094 40.1094 42.2031 39.5312 42.9375 39.5312C43.625 39.5312 44.2344 40.1094 44.2344 40.8281C44.2344 41.5469 43.625 42.1406 42.9375 42.1406ZM50 42.1562C47.1719 42.1562 45.4531 40.0469 45.4531 36.3438C45.4531 32.6406 47.1719 30.5312 50 30.5312C52.8281 30.5312 54.5469 32.6562 54.5469 36.3438C54.5469 40.0625 52.8281 42.1562 50 42.1562ZM50 40.2188C51.3125 40.2188 52.1562 38.9531 52.1406 36.3438C52.1406 33.7656 51.3125 32.4531 50 32.4531C48.6875 32.4531 47.8594 33.7656 47.8594 36.3438C47.8438 38.9531 48.6875 40.2188 50 40.2188ZM60.5625 42.1562C57.7344 42.1562 56.0156 40.0469 56.0156 36.3438C56.0156 32.6406 57.7344 30.5312 60.5625 30.5312C63.3906 30.5312 65.1094 32.6562 65.1094 36.3438C65.1094 40.0625 63.3906 42.1562 60.5625 42.1562ZM60.5625 40.2188C61.875 40.2188 62.7188 38.9531 62.7031 36.3438C62.7031 33.7656 61.875 32.4531 60.5625 32.4531C59.25 32.4531 58.4219 33.7656 58.4219 36.3438C58.4062 38.9531 59.25 40.2188 60.5625 40.2188Z" fill="black"/>
<path d="M127.047 37.9219C130 37.9219 131.844 38.9375 131.844 40.6719C131.844 42.4375 130 43.4531 127.047 43.4531C124.031 43.4531 122.172 42.4375 122.172 40.6719C122.172 38.9375 124.031 37.9219 127.047 37.9219ZM127.047 39.4688C125.172 39.4688 124.156 39.8594 124.172 40.6719C124.156 41.4844 125.172 41.9062 127.047 41.9062C128.891 41.9062 129.875 41.4844 129.875 40.6719C129.875 39.8594 128.891 39.4688 127.047 39.4688ZM131.703 29.2188V32.5156H133.625V34.1875H131.703V37.6094H129.703V29.2188H131.703ZM122.828 30.1094V31.9062H125.734V30.1094H127.734V36.7969H120.844V30.1094H122.828ZM122.828 35.2188H125.734V33.4531H122.828V35.2188ZM147.25 36.25V37.8281H141.891V40.2812H139.922V37.8281H134.234V36.25H147.25ZM145.578 29.8438V35.0781H135.859V29.8438H145.578ZM137.812 31.3906V33.5312H143.625V31.3906H137.812ZM145.812 41.5938V43.1875H135.766V39.0469H137.75V41.5938H145.812ZM153.328 33.0938C153.312 35.2656 154.469 37.7656 156.812 38.8438L155.703 40.4062C154.117 39.6797 152.984 38.2266 152.359 36.5156C151.719 38.3984 150.555 39.9922 148.906 40.7656L147.75 39.1875C150.125 38.0781 151.312 35.4375 151.328 33.0938V32.2188H148.312V30.5938H156.188V32.2188H153.328V33.0938ZM159.297 29.2188V34.6406H161.391V36.3125H159.297V43.4375H157.297V29.2188H159.297ZM177.5 29.2344V39.4531H175.5V29.2344H177.5ZM177.875 41.5938V43.1875H167.969V38.4219H169.984V41.5938H177.875ZM169.703 30.1406C171.891 30.1406 173.594 31.6406 173.594 33.7188C173.594 35.8438 171.891 37.3281 169.703 37.3281C167.516 37.3281 165.812 35.8438 165.812 33.7188C165.812 31.6406 167.516 30.1406 169.703 30.1406ZM169.703 31.875C168.594 31.8594 167.75 32.5625 167.766 33.7188C167.75 34.9062 168.594 35.5938 169.703 35.5938C170.781 35.5938 171.625 34.9062 171.625 33.7188C171.625 32.5625 170.781 31.8594 169.703 31.875ZM191.375 29.2188V43.4375H189.359V29.2188H191.375ZM187.109 30.7031C187.109 35.0156 185.594 38.5938 180.516 41L179.469 39.4062C183.141 37.6719 184.758 35.4219 185.078 32.2656H180.234V30.7031H187.109Z" fill="black"/>
<path d="M252.766 20.6875V32H250.406V22.9219H250.344L247.75 24.5469V22.4688L250.547 20.6875H252.766ZM255.203 30V28.1406L259.984 20.6875H262.938V28.1094H264.375V30H262.938V32H260.703V30H255.203ZM257.578 28.1094H260.734V23.2656H260.625L257.578 28.0156V28.1094ZM270.297 32.1562C267.469 32.1562 265.75 30.0469 265.75 26.3438C265.75 22.6406 267.469 20.5312 270.297 20.5312C273.125 20.5312 274.844 22.6562 274.844 26.3438C274.844 30.0625 273.125 32.1562 270.297 32.1562ZM270.297 30.2188C271.609 30.2188 272.453 28.9531 272.438 26.3438C272.438 23.7656 271.609 22.4531 270.297 22.4531C268.984 22.4531 268.156 23.7656 268.156 26.3438C268.141 28.9531 268.984 30.2188 270.297 30.2188ZM259.344 40.2188V54.4688H257.359V40.2188H259.344ZM254.938 41.4062V46.8906H250.25V49.5C252.414 49.4922 254.258 49.3672 256.344 49.0312L256.516 50.6406C254.172 51.0469 252.062 51.1406 249.469 51.1406H248.188V45.3125H252.906V43.0156H248.172V41.4062H254.938ZM274.25 48.2656V49.875H271.312V54.4375H269.312V49.875H266.203V54.4375H264.156V49.875H261.234V48.2656H274.25ZM264.734 40.75V42.3281H270.703V40.75H272.703V46.9219H262.766V40.75H264.734ZM264.734 45.3438H270.703V43.8906H264.734V45.3438Z" fill="black"/>
<line x1="95.5" y1="9" x2="95.5" y2="66" stroke="#A1A1A1"/>
<line x1="215.5" y1="8" x2="215.5" y2="65" stroke="#A1A1A1"/>
</svg>
