<svg width="43" height="18" viewBox="0 0 43 18" fill="none" xmlns="http://www.w3.org/2000/svg">
<rect width="43" height="18" rx="9" fill="black" fill-opacity="0.6"/>
<path d="M12.0449 4.10156V14H9.98047V6.05664H9.92578L7.65625 7.47852V5.66016L10.1035 4.10156H12.0449ZM18.6348 3.63672L15.4355 15.4902H13.6992L16.8848 3.63672H18.6348ZM23.2012 14.1367C21.0273 14.1367 19.4688 12.9336 19.4277 11.2109H21.5059C21.5469 11.9492 22.2578 12.4414 23.2148 12.4414C24.1992 12.4414 24.9102 11.8809 24.8965 11.0879C24.9102 10.2812 24.1855 9.70703 23.0234 9.70703H22.1074V8.18945H23.0234C23.9941 8.18945 24.6777 7.65625 24.6777 6.87695C24.6777 6.125 24.1035 5.60547 23.2285 5.60547C22.3535 5.60547 21.6289 6.09766 21.6016 6.84961H19.6328C19.6602 5.14062 21.2051 3.96484 23.2285 3.96484C25.293 3.96484 26.6738 5.18164 26.6602 6.75391C26.6738 7.86133 25.8945 8.6543 24.7871 8.8457V8.92773C26.2363 9.10547 27.043 9.99414 27.0293 11.2246C27.043 12.9199 25.4297 14.1367 23.2012 14.1367ZM28.3145 12.25V10.623L32.498 4.10156H35.082V10.5957H36.3398V12.25H35.082V14H33.127V12.25H28.3145ZM30.3926 10.5957H33.1543V6.35742H33.0586L30.3926 10.5137V10.5957Z" fill="white"/>
</svg>
