<svg width="324" height="788" viewBox="0 0 324 788" fill="none" xmlns="http://www.w3.org/2000/svg">
<path d="M11.9375 101.094C11.9375 103.391 13.1094 105.844 15.5 106.844L14.4219 108.406C12.7422 107.695 11.5859 106.281 10.9531 104.547C10.3047 106.43 9.125 107.992 7.45312 108.766L6.3125 107.188C8.67188 106.141 9.89062 103.5 9.89062 101.094V100.219H6.875V98.5938H14.9062V100.219H11.9375V101.094ZM18.3281 97.2188V111.438H16.3125V97.2188H18.3281ZM31.8438 103.578V105.156H27.7188V108.188H33.2656V109.812H20.25V108.188H25.7344V105.156H21.7812V98.2188H31.7344V99.8125H23.7812V103.578H31.8438ZM50.7812 108.156V109.781H37.7656V108.156H43.25V105.531H39.1406V98.125H41.1406V100.328H47.3438V98.125H49.3281V105.531H45.2344V108.156H50.7812ZM41.1406 103.938H47.3438V101.922H41.1406V103.938ZM63.5469 97.2188V111.438H61.5312V97.2188H63.5469ZM59.2812 98.7031C59.2812 103.016 57.7656 106.594 52.6875 109L51.6406 107.406C55.3125 105.672 56.9297 103.422 57.25 100.266H52.4062V98.7031H59.2812Z" fill="black"/>
<line x1="-0.00317454" y1="64.5571" x2="323.996" y2="62.5" stroke="#A1A1A1"/>
<rect opacity="0.23" x="6" y="144" width="304" height="304" rx="13" fill="#D9D9D9"/>
<line x1="24.0093" y1="466.002" x2="23.4379" y2="788.003" stroke="#D9D9D9" stroke-width="3"/>
<circle cx="24" cy="516" r="17" fill="#FFA800"/>
<path d="M25.7656 510.688V522H23.4062V512.922H23.3438L20.75 514.547V512.469L23.5469 510.688H25.7656Z" fill="white"/>
<rect x="51.5" y="487.5" width="256" height="57" rx="7.5" fill="white" stroke="#C5C5C5"/>
<circle cx="24" cy="590" r="17" fill="#FFA800"/>
<path d="M19.8906 596L19.875 594.297L23.9375 590.562C25 589.547 25.5625 588.922 25.5625 588.031C25.5625 587.031 24.7969 586.406 23.7656 586.406C22.7031 586.406 22.0156 587.078 22.0156 588.156H19.7812C19.7656 585.938 21.4062 584.531 23.7969 584.531C26.2188 584.531 27.8281 585.906 27.8281 587.875C27.8281 589.156 27.2031 590.219 24.875 592.328L23.1562 594V594.062H27.9844V596H19.8906Z" fill="white"/>
<rect x="51.5" y="561.5" width="256" height="57" rx="7.5" fill="white" stroke="#C5C5C5"/>
<path d="M76.9219 586.188C79.4531 586.188 81.5 587.875 81.5 590.219C81.5 592.531 79.4531 594.234 76.9219 594.219C74.4219 594.234 72.3594 592.531 72.375 590.219C72.3594 587.875 74.4219 586.188 76.9219 586.188ZM76.9219 587.906C75.4375 587.906 74.25 588.797 74.2656 590.219C74.25 591.625 75.4375 592.562 76.9219 592.562C78.4219 592.562 79.5625 591.625 79.5625 590.219C79.5625 588.797 78.4219 587.906 76.9219 587.906ZM90.75 586.188C93.2812 586.188 95.3281 587.875 95.3281 590.219C95.3281 592.531 93.2812 594.234 90.75 594.219C88.25 594.234 86.1875 592.531 86.2031 590.219C86.1875 587.875 88.25 586.188 90.75 586.188ZM90.75 587.906C89.2656 587.906 88.0781 588.797 88.0938 590.219C88.0781 591.625 89.2656 592.562 90.75 592.562C92.25 592.562 93.3906 591.625 93.3906 590.219C93.3906 588.797 92.25 587.906 90.75 587.906Z" fill="black"/>
<path d="M25.1289 2.81641V15.2578H23.4746V2.81641H25.1289ZM22.5859 3.02148V14.6836H20.9453V8.49023H19.3047V7.08203H20.9453V3.02148H22.5859ZM18.3066 6.15234C18.3066 8.2168 18.9492 10.3086 20.7676 11.3477L19.7422 12.6328C18.6348 11.9766 17.9033 10.8623 17.4863 9.5293C17.0557 10.9785 16.3037 12.209 15.1621 12.9062L14.1094 11.6211C15.9414 10.5 16.625 8.25781 16.625 6.15234V5.48242H14.5879V4.08789H20.1934V5.48242H18.3066V6.15234ZM36.2852 2.81641V7.58789H38.0488V9.02344H36.2852V15.2305H34.5352V2.81641H36.2852ZM32.9629 4.08789C32.9492 7.80664 31.5 11.0332 27.3164 13.084L26.332 11.7441C29.2783 10.2676 30.8574 8.28516 31.1855 5.50977H27.043V4.08789H32.9629ZM52.2129 2.81641V10.3086H50.4629V2.81641H52.2129ZM52.2129 10.8555V15.2578H50.4629V12.25H43.6543V10.8555H52.2129ZM49.1504 3.54102V4.93555H46.6484C46.6621 6.3916 47.5781 7.92285 49.6152 8.53125L48.7266 9.88477C47.332 9.4541 46.3477 8.55859 45.7871 7.42383C45.2197 8.6543 44.208 9.63184 42.752 10.1172L41.8496 8.76367C43.9004 8.10059 44.8574 6.4873 44.8711 4.93555H42.3145V3.54102H49.1504ZM64.3809 2.81641V9.625H62.6445V7.02734H60.6758V5.60547H62.6445V2.81641H64.3809ZM57.8047 10.1035V11.2793H62.6445V10.1035H64.3809V15.1211H56.082V10.1035H57.8047ZM57.8047 13.7266H62.6445V12.6191H57.8047V13.7266ZM61.0723 3.37695V4.79883H58.6113C58.6797 6.18652 59.5684 7.62891 61.4551 8.24414L60.5938 9.58398C59.2129 9.12598 58.2627 8.2373 57.7227 7.10938C57.1758 8.36035 56.1846 9.36523 54.7148 9.84375L53.8262 8.47656C55.7812 7.82715 56.7178 6.31641 56.8203 4.79883H54.3184V3.37695H61.0723ZM79.0918 2.81641V6.38477H80.7734V7.83398H79.0918V11.8809H77.3418V2.81641H79.0918ZM79.543 13.6445V15.0391H71.0254V10.9238H72.7617V13.6445H79.543ZM72.7207 3.62305C74.6211 3.62305 76.1113 4.93555 76.1113 6.78125C76.1113 8.59961 74.6211 9.93945 72.7207 9.93945C70.8066 9.93945 69.3027 8.59961 69.3027 6.78125C69.3027 4.93555 70.8066 3.62305 72.7207 3.62305ZM72.7207 5.14062C71.7773 5.12695 71.0117 5.74219 71.0254 6.78125C71.0117 7.79297 71.7773 8.42188 72.7207 8.42188C73.6777 8.42188 74.4023 7.79297 74.416 6.78125C74.4023 5.74219 73.6777 5.12695 72.7207 5.14062ZM92.0527 2.81641V15.2578H90.3711V9.03711H89.209V14.6562H87.5684V3.02148H89.209V7.62891H90.3711V2.81641H92.0527ZM83.5762 4.19727V10.6914C84.5742 10.6709 85.668 10.582 86.8711 10.3496L87.0488 11.8535C85.3809 12.1406 83.959 12.2227 82.6738 12.2227H81.8262V4.19727H83.5762ZM99.4219 4.7168V6.09766H93.4062V4.7168H95.5664V3.1582H97.2891V4.7168H99.4219ZM96.4414 6.6582C98.0273 6.6582 99.1621 7.88867 99.1758 9.61133C99.1621 11.3477 98.0273 12.5781 96.4414 12.5781C94.8555 12.5781 93.6934 11.3477 93.6934 9.61133C93.6934 7.88867 94.8555 6.6582 96.4414 6.6582ZM96.4414 8.10742C95.7168 8.10742 95.2246 8.66797 95.2246 9.61133C95.2246 10.5547 95.7168 11.1016 96.4414 11.1016C97.1387 11.1016 97.6309 10.5547 97.6445 9.61133C97.6309 8.66797 97.1387 8.10742 96.4414 8.10742ZM104.18 2.81641V15.2578H102.525V9.26953H101.514V14.7246H99.8867V3.0625H101.514V7.875H102.525V2.81641H104.18ZM115.664 8.57227V9.9668H106.859V3.85547H115.568V5.26367H108.582V8.57227H115.664ZM116.908 12.3047V13.7402H105.52V12.3047H116.908ZM128.051 2.81641V15.2852H126.314V2.81641H128.051ZM124.195 3.85547V8.6543H120.094V10.9375C121.987 10.9307 123.601 10.8213 125.426 10.5273L125.576 11.9355C123.525 12.291 121.68 12.373 119.41 12.373H118.289V7.27344H122.418V5.26367H118.275V3.85547H124.195ZM139.822 6.20703V7.57422H131.127V3.25391H132.863V6.20703H139.822ZM141.094 8.91406V10.2812H129.705V8.91406H141.094ZM139.904 13.5898V14.9844H131.018V11.293H132.768V13.5898H139.904ZM155.736 2.83008V9.91211H154.082V7.05469H152.961V9.84375H151.32V3.04883H152.961V5.67383H154.082V2.83008H155.736ZM150.473 3.67773C150.473 6.82227 149.119 8.92773 145.879 10.2402L145.018 8.96875C147.369 8.07324 148.449 6.79492 148.695 5.07227H145.551V3.67773H150.473ZM155.736 10.459V15.0664H147.246V10.459H155.736ZM148.969 11.8398V13.6719H154.027V11.8398H148.969ZM161.848 4.51172C161.834 6.17969 162.695 7.71094 164.691 8.32617L163.775 9.69336C162.436 9.22852 161.526 8.36719 161.014 7.24609C160.453 8.54492 159.448 9.57031 157.951 10.0762L157.035 8.68164C159.168 7.99805 160.07 6.33008 160.084 4.59375V3.45898H161.848V4.51172ZM167.631 2.81641V10.1035H165.895V6.52148H163.557V5.09961H165.895V2.81641H167.631ZM163.379 10.4316C166.031 10.4316 167.658 11.3203 167.672 12.8516C167.658 14.3828 166.031 15.2578 163.379 15.2578C160.727 15.2578 159.1 14.3828 159.1 12.8516C159.1 11.3203 160.727 10.4316 163.379 10.4316ZM163.379 11.7852C161.725 11.7852 160.836 12.1406 160.836 12.8516C160.836 13.5352 161.725 13.9043 163.379 13.9043C165.033 13.9043 165.936 13.5352 165.936 12.8516C165.936 12.1406 165.033 11.7852 163.379 11.7852ZM183.846 10.1855V11.6074H178.992V15.2578H177.27V11.6074H172.457V10.1855H183.846ZM182.629 7.90234V9.2832H173.893V3.32227H182.492V4.68945H175.602V5.61914H182.232V6.95898H175.602V7.90234H182.629ZM188.002 3.69141C189.684 3.69141 190.935 5.0791 191.188 7.31445H193.348V2.81641H195.07V15.2852H193.348V8.70898H191.201C191.017 11.1016 189.738 12.5645 188.002 12.5645C186.115 12.5645 184.762 10.8555 184.775 8.12109C184.762 5.41406 186.115 3.69141 188.002 3.69141ZM188.002 5.26367C187.072 5.26367 186.43 6.27539 186.443 8.12109C186.43 9.98047 187.072 10.9785 188.002 10.9785C188.945 10.9785 189.561 9.98047 189.561 8.12109C189.561 6.27539 188.945 5.26367 188.002 5.26367ZM207.088 2.81641V9.50195H205.338V2.81641H207.088ZM200.484 10.0488V11.2109H205.352V10.0488H207.088V15.1211H198.762V10.0488H200.484ZM200.484 13.7129H205.352V12.5645H200.484V13.7129ZM200.266 3.33594C202.207 3.32227 203.67 4.53906 203.67 6.28906C203.67 7.98438 202.207 9.20117 200.266 9.20117C198.324 9.20117 196.861 7.98438 196.861 6.28906C196.861 4.53906 198.324 3.32227 200.266 3.33594ZM200.266 4.78516C199.268 4.78516 198.557 5.3457 198.57 6.28906C198.557 7.21875 199.268 7.76562 200.266 7.76562C201.236 7.76562 201.947 7.21875 201.947 6.28906C201.947 5.3457 201.236 4.78516 200.266 4.78516ZM219.229 2.81641V15.2578H217.492V2.81641H219.229ZM211.162 4.00586V10.6914C212.844 10.6709 214.648 10.5137 216.48 10.1582L216.699 11.5938C214.512 12.0449 212.461 12.1953 210.533 12.1816H209.439V4.00586H211.162ZM230.686 2.81641V7.4375H232.518V8.85938H230.686V15.2852H228.936V2.81641H230.686ZM227.199 3.96484V5.37305H223.098V10.8281C224.902 10.8076 226.393 10.7256 228.047 10.4316L228.238 11.8945C226.311 12.2227 224.615 12.2773 222.414 12.2637H221.361V3.96484H227.199ZM234.582 14.123C233.939 14.123 233.42 13.6035 233.434 12.9746C233.42 12.3457 233.939 11.8398 234.582 11.8398C235.184 11.8398 235.717 12.3457 235.717 12.9746C235.717 13.6035 235.184 14.123 234.582 14.123ZM25.7168 27.5156V28.8965H14.3691V27.5156H19.168V26.1484H20.8906V27.5156H25.7168ZM20.8906 20.8438V22.0469H24.623V23.4004H21.041C21.2393 24.3438 22.5244 25.2256 25.2109 25.4512L24.6504 26.7773C22.3877 26.5859 20.8086 25.875 20.0293 24.8086C19.25 25.875 17.6709 26.5859 15.4082 26.7773L14.8477 25.4512C17.5205 25.2256 18.8057 24.3438 19.0312 23.4004H15.4629V22.0469H19.168V20.8438H20.8906ZM24.4316 31.6445V33.0391H15.7363V29.6074H17.4863V31.6445H24.4316ZM32.9492 21.6094C32.9492 25.0273 31.2266 27.3789 27.2617 28.6504L26.5508 27.2832C28.2324 26.7773 29.3809 26.0801 30.1191 25.2188L26.8105 25.4648L26.5781 24.0977L30.8574 23.9609C30.96 23.6533 31.0352 23.3389 31.0762 23.0039H27.207V21.6094H32.9492ZM36.3398 20.8164V23.7969H38.0215V25.2461H36.3398V28.1445H34.5898V20.8164H36.3398ZM32.2793 28.3086C34.8359 28.3086 36.4766 29.2656 36.4766 30.7832C36.4766 32.3145 34.8359 33.2578 32.2793 33.2578C29.7363 33.2578 28.0547 32.3145 28.0684 30.7832C28.0547 29.2656 29.7363 28.3086 32.2793 28.3086ZM32.2793 29.6758C30.707 29.6758 29.7773 30.0449 29.791 30.7832C29.7773 31.5078 30.707 31.9043 32.2793 31.9043C33.8242 31.9043 34.7539 31.5078 34.7539 30.7832C34.7539 30.0449 33.8242 29.6758 32.2793 29.6758ZM45.1172 22.457C45.1172 24.2754 46.7305 26.2305 49.5469 26.709L48.7812 28.1582C46.6143 27.7275 45.001 26.5107 44.2012 24.9043C43.374 26.4971 41.7607 27.7207 39.6074 28.1582L38.8555 26.709C41.6172 26.2168 43.2441 24.2617 43.2578 22.457V21.5547H45.1172V22.457ZM49.957 30.291V31.7266H38.5684V30.291H49.957ZM63.7109 20.8164V25.5879H65.4746V27.0234H63.7109V33.2305H61.9609V20.8164H63.7109ZM60.3887 22.0879C60.375 25.8066 58.9258 29.0332 54.7422 31.084L53.7578 29.7441C56.7041 28.2676 58.2832 26.2852 58.6113 23.5098H54.4688V22.0879H60.3887ZM77.3828 30.3867V31.8086H65.9941V30.3867H70.793V28.0898H67.1973V21.6094H68.9473V23.5371H74.375V21.6094H76.1113V28.0898H72.5293V30.3867H77.3828ZM68.9473 26.6953H74.375V24.9316H68.9473V26.6953ZM82.6875 24.207C82.6738 26.1074 83.6855 28.2949 85.7363 29.2383L84.7656 30.6055C83.3779 29.9697 82.3867 28.6982 81.8398 27.2012C81.2793 28.8486 80.2607 30.2432 78.8184 30.9199L77.8066 29.5391C79.8848 28.5684 80.9238 26.2578 80.9375 24.207V23.4414H78.2988V22.0195H85.1895V23.4414H82.6875V24.207ZM87.9102 20.8164V25.5605H89.7422V27.0234H87.9102V33.2578H86.1602V20.8164H87.9102ZM100.447 21.8965V23.0723C100.447 24.6309 100.447 26.3809 99.9414 29.0195L98.1914 28.8418C98.6631 26.4902 98.6836 24.7402 98.6973 23.2773H91.3691V21.8965H100.447ZM101.541 30.3184V31.7402H90.1934V30.3184H94.2539V26.0391H95.9902V30.3184H101.541Z" fill="black"/>
<circle cx="23" cy="664" r="17" fill="#FFA800"/>
<rect x="50.5" y="635.5" width="256" height="57" rx="7.5" fill="white" stroke="#C5C5C5"/>
<path d="M75.9219 660.188C78.4531 660.188 80.5 661.875 80.5 664.219C80.5 666.531 78.4531 668.234 75.9219 668.219C73.4219 668.234 71.3594 666.531 71.375 664.219C71.3594 661.875 73.4219 660.188 75.9219 660.188ZM75.9219 661.906C74.4375 661.906 73.25 662.797 73.2656 664.219C73.25 665.625 74.4375 666.562 75.9219 666.562C77.4219 666.562 78.5625 665.625 78.5625 664.219C78.5625 662.797 77.4219 661.906 75.9219 661.906ZM89.75 660.188C92.2812 660.188 94.3281 661.875 94.3281 664.219C94.3281 666.531 92.2812 668.234 89.75 668.219C87.25 668.234 85.1875 666.531 85.2031 664.219C85.1875 661.875 87.25 660.188 89.75 660.188ZM89.75 661.906C88.2656 661.906 87.0781 662.797 87.0938 664.219C87.0781 665.625 88.2656 666.562 89.75 666.562C91.25 666.562 92.3906 665.625 92.3906 664.219C92.3906 662.797 91.25 661.906 89.75 661.906Z" fill="black"/>
<circle cx="23" cy="738" r="17" fill="#FFA800"/>
<path d="M23.0781 744.156C20.5938 744.156 18.8125 742.781 18.7656 740.812H21.1406C21.1875 741.656 22 742.219 23.0938 742.219C24.2188 742.219 25.0312 741.578 25.0156 740.672C25.0312 739.75 24.2031 739.094 22.875 739.094H21.8281V737.359H22.875C23.9844 737.359 24.7656 736.75 24.7656 735.859C24.7656 735 24.1094 734.406 23.1094 734.406C22.1094 734.406 21.2812 734.969 21.25 735.828H19C19.0312 733.875 20.7969 732.531 23.1094 732.531C25.4688 732.531 27.0469 733.922 27.0312 735.719C27.0469 736.984 26.1562 737.891 24.8906 738.109V738.203C26.5469 738.406 27.4688 739.422 27.4531 740.828C27.4688 742.766 25.625 744.156 23.0781 744.156Z" fill="white"/>
<rect x="50.5" y="709.5" width="256" height="57" rx="7.5" fill="white" stroke="#C5C5C5"/>
<path d="M75.9219 734.188C78.4531 734.188 80.5 735.875 80.5 738.219C80.5 740.531 78.4531 742.234 75.9219 742.219C73.4219 742.234 71.3594 740.531 71.375 738.219C71.3594 735.875 73.4219 734.188 75.9219 734.188ZM75.9219 735.906C74.4375 735.906 73.25 736.797 73.2656 738.219C73.25 739.625 74.4375 740.562 75.9219 740.562C77.4219 740.562 78.5625 739.625 78.5625 738.219C78.5625 736.797 77.4219 735.906 75.9219 735.906ZM89.75 734.188C92.2812 734.188 94.3281 735.875 94.3281 738.219C94.3281 740.531 92.2812 742.234 89.75 742.219C87.25 742.234 85.1875 740.531 85.2031 738.219C85.1875 735.875 87.25 734.188 89.75 734.188ZM89.75 735.906C88.2656 735.906 87.0781 736.797 87.0938 738.219C87.0781 739.625 88.2656 740.562 89.75 740.562C91.25 740.562 92.3906 739.625 92.3906 738.219C92.3906 736.797 91.25 735.906 89.75 735.906Z" fill="black"/>
<path d="M15 672V661.333L23 656L31 661.333V672H25V665.778H21V672H15Z" fill="white"/>
</svg>
