<svg width="24" height="24" viewBox="0 0 24 24" fill="none" xmlns="http://www.w3.org/2000/svg">
<circle cx="12" cy="12" r="11.5" fill="white" stroke="#FFA800"/>
<path d="M15.4091 9.17843H12.4545V13.3861C12.4545 13.5092 12.4067 13.6273 12.3214 13.7144C12.2362 13.8015 12.1206 13.8504 12 13.8504C11.8794 13.8504 11.7638 13.8015 11.6786 13.7144C11.5933 13.6273 11.5455 13.5092 11.5455 13.3861V9.17843H8.59091C8.16911 9.17889 7.76472 9.35024 7.46646 9.65489C7.16821 9.95955 7.00045 10.3726 7 10.8035V16.375C7.00045 16.8058 7.16821 17.2189 7.46646 17.5235C7.76472 17.8282 8.16911 17.9995 8.59091 18H15.4091C15.8309 17.9995 16.2353 17.8282 16.5335 17.5235C16.8318 17.2189 16.9995 16.8058 17 16.375V10.8035C16.9995 10.3726 16.8318 9.95955 16.5335 9.65489C16.2353 9.35024 15.8309 9.17889 15.4091 9.17843ZM12.4545 6.58506L13.9514 8.11374C14.0374 8.19714 14.1518 8.24295 14.2703 8.24139C14.3888 8.23985 14.5021 8.19106 14.5859 8.10544C14.6697 8.01983 14.7175 7.90415 14.719 7.78308C14.7205 7.66201 14.6757 7.54513 14.594 7.45735L12.3213 5.13588C12.2361 5.04887 12.1205 5 12 5C11.8795 5 11.7639 5.04887 11.6787 5.13588L9.40597 7.45735C9.32432 7.54513 9.27948 7.66201 9.28099 7.78308C9.28251 7.90415 9.33027 8.01983 9.41409 8.10544C9.49791 8.19106 9.61115 8.23985 9.72968 8.24139C9.84821 8.24295 9.96264 8.19714 10.0486 8.11374L11.5455 6.58506V9.17843H12.4545V6.58506Z" fill="#FFA800"/>
</svg>
