
<svg width="137" height="153" viewBox="0 0 137 153" fill="none" xmlns="http://www.w3.org/2000/svg">
<path d="M56.3578 8.65201L84.7234 144.067C85.3347 146.985 83.1076 149.727 80.1261 149.727C77.927 149.727 76.0223 148.202 75.5422 146.056L55.4039 56.0359C54.9022 53.793 52.9115 52.1985 50.6132 52.1985H12.2301C7.80435 52.1985 5.63849 46.8026 8.83601 43.7427L48.1589 6.11177C50.9419 3.44846 55.568 4.88175 56.3578 8.65201Z" fill="#FFA800" stroke="#FFA800" stroke-width="2.45455"/>
<path d="M94.5995 149.727L83.4545 99.8811L98.7789 95.7273L102.958 123.42L118.283 109.573L135 113.727V149.727H123.855L118.283 141.42V126.189L94.5995 149.727Z" fill="#FFA800" stroke="#FFA800" stroke-width="2.45455"/>
<path d="M92.0455 39.2727L132.545 51.4227L123.095 71.6727L101.495 58.1727L113.645 71.6727V87.8727H106.895L81.2455 93.2727V87.8727L85.2955 79.7727L97.4455 75.7227L78.5455 51.4227L92.0455 39.2727Z" fill="#FFA800" stroke="#FFA800" stroke-width="2.45455"/>
<path d="M15.9545 136.227H65.0454" stroke="#FFA800" stroke-width="7.36364"/>
</svg>
