<svg width="38" height="40" viewBox="0 0 38 40" fill="none" xmlns="http://www.w3.org/2000/svg">
<path d="M35.2755 24.7725L36.9083 23.8858L35.1033 20.6767L33.4705 21.5633C32.2185 22.2439 31.1092 23.1516 30.2015 24.2383L22.7321 20L30.2024 15.7617C31.1101 16.8484 32.2194 17.7561 33.4714 18.4367L35.1042 19.3233L36.9092 16.1142L35.2764 15.2275C34.6208 14.8717 34.0225 14.4224 33.5011 13.8942L38 11.3375L36.1339 8.16667L31.6384 10.715C31.4321 10.0068 31.3343 9.27235 31.3483 8.53583L31.3831 6.7025L27.6509 6.63417L27.6162 8.4675C27.5898 9.87179 27.8341 11.2683 28.3363 12.5833L20.8661 16.8242V8.34833C22.2775 8.119 23.632 7.62897 24.8578 6.90417L26.4558 5.95833L24.5295 2.8175L22.9315 3.76333C22.2891 4.1428 21.5931 4.42671 20.8661 4.60583V0H17.1339V4.60583C16.4069 4.42671 15.7109 4.1428 15.0685 3.76333L13.4705 2.8175L11.5442 5.95833L13.1422 6.90417C14.368 7.62897 15.7225 8.119 17.1339 8.34833V16.8242L9.6637 12.5833C10.1674 11.2675 10.4129 9.86979 10.3872 8.46417L10.3525 6.63083L6.62031 6.69917L6.65509 8.5325C6.66908 9.26901 6.57131 10.0035 6.365 10.7117L1.86607 8.16667L0 11.3417L4.49978 13.895C3.97836 14.4232 3.38008 14.8726 2.72446 15.2283L1.09165 16.1142L2.89665 19.3233L4.52946 18.4367C5.78149 17.7561 6.89077 16.8484 7.79848 15.7617L15.2679 20L7.79763 24.2383C6.88992 23.1516 5.78064 22.2439 4.52862 21.5633L2.89665 20.6767L1.09165 23.8858L2.72446 24.7725C3.38008 25.1283 3.97836 25.5776 4.49978 26.1058L0 28.6667L1.86607 31.8417L6.36585 29.2892C6.57216 29.9974 6.66993 30.7318 6.65594 31.4683L6.62116 33.3017L10.3533 33.37L10.3881 31.5367C10.4136 30.1307 10.1678 28.7327 9.6637 27.4167L17.1339 23.1758V31.6517C15.7225 31.881 14.368 32.371 13.1422 33.0958L11.5442 34.0417L13.4705 37.1825L15.0685 36.2367C15.7109 35.8572 16.4069 35.5733 17.1339 35.3942V40H20.8661V35.3942C21.5931 35.5733 22.2891 35.8572 22.9315 36.2367L24.5295 37.1825L26.4558 34.0417L24.8578 33.0958C23.632 32.371 22.2775 31.881 20.8661 31.6517V23.1758L28.3363 27.4167C27.8326 28.7325 27.5871 30.1302 27.6128 31.5358L27.6475 33.3692L31.3797 33.3008L31.3449 31.4675C31.3317 30.7297 31.4306 29.9941 31.6384 29.285L36.1339 31.8375L38 28.6667L33.5045 26.1092C34.0244 25.5801 34.6212 25.1296 35.2755 24.7725Z" fill="black"/>
</svg>
