<svg width="40" height="37" viewBox="0 0 40 37" fill="none" xmlns="http://www.w3.org/2000/svg">
<path d="M17.6471 10.4062C17.6471 8.56631 16.9034 6.80173 15.5796 5.5007C14.2558 4.19966 12.4604 3.46875 10.5882 3.46875C8.71612 3.46875 6.92068 4.19966 5.59689 5.5007C4.27311 6.80173 3.52941 8.56631 3.52941 10.4062C3.52941 12.2462 4.27311 14.0108 5.59689 15.3118C6.92068 16.6128 8.71612 17.3438 10.5882 17.3438C12.4604 17.3438 14.2558 16.6128 15.5796 15.3118C16.9034 14.0108 17.6471 12.2462 17.6471 10.4062ZM20.9118 12.7188C19.8456 17.351 15.625 20.8125 10.5882 20.8125C4.74265 20.8125 0 16.1514 0 10.4062C0 4.66113 4.74265 0 10.5882 0C15.625 0 19.8456 3.46152 20.9118 8.09375H26.1912C26.8382 7.38555 27.7794 6.9375 28.8235 6.9375H36.4706C38.4191 6.9375 40 8.49121 40 10.4062C40 12.3213 38.4191 13.875 36.4706 13.875H28.8235C27.7794 13.875 26.8382 13.427 26.1912 12.7188H20.9118ZM10.5882 5.78125C11.8363 5.78125 13.0333 6.26853 13.9158 7.13588C14.7983 8.00324 15.2941 9.17962 15.2941 10.4062C15.2941 11.6329 14.7983 12.8093 13.9158 13.6766C13.0333 14.544 11.8363 15.0312 10.5882 15.0312C9.34016 15.0312 8.1432 14.544 7.26067 13.6766C6.37815 12.8093 5.88235 11.6329 5.88235 10.4062C5.88235 9.17962 6.37815 8.00324 7.26067 7.13588C8.1432 6.26853 9.34016 5.78125 10.5882 5.78125ZM29.4118 17.3438C30.3897 17.3438 31.1765 18.117 31.1765 19.0781V19.6562H38.2353C39.2132 19.6562 40 20.4295 40 21.3906C40 22.3518 39.2132 23.125 38.2353 23.125H20.5882C19.6103 23.125 18.8235 22.3518 18.8235 21.3906C18.8235 20.4295 19.6103 19.6562 20.5882 19.6562H27.6471V19.0781C27.6471 18.117 28.4338 17.3438 29.4118 17.3438ZM21.1765 33.5312V25.4375H37.6471V33.5312C37.6471 35.4463 36.0662 37 34.1176 37H24.7059C22.7574 37 21.1765 35.4463 21.1765 33.5312ZM3.52941 23.125H12.9412C14.8897 23.125 16.4706 24.6787 16.4706 26.5938C16.4706 28.5088 14.8897 30.0625 12.9412 30.0625H11.7647C11.7647 31.3416 10.7132 32.375 9.41177 32.375H4.70588C3.40441 32.375 2.35294 31.3416 2.35294 30.0625V24.2812C2.35294 23.6453 2.88235 23.125 3.52941 23.125ZM12.9412 27.75C13.5882 27.75 14.1176 27.2297 14.1176 26.5938C14.1176 25.9578 13.5882 25.4375 12.9412 25.4375H11.7647V27.75H12.9412ZM1.76471 33.5312H14.7059C15.6838 33.5312 16.4706 34.3045 16.4706 35.2656C16.4706 36.2268 15.6838 37 14.7059 37H1.76471C0.786765 37 0 36.2268 0 35.2656C0 34.3045 0.786765 33.5312 1.76471 33.5312Z" fill="black"/>
</svg>
