<svg width="29" height="34" viewBox="0 0 29 34" fill="none" xmlns="http://www.w3.org/2000/svg">
<path fill-rule="evenodd" clip-rule="evenodd" d="M0 3.64286C0 2.67671 0.381919 1.75014 1.06174 1.06697C1.74156 0.3838 2.66359 0 3.625 0L25.375 0C26.3364 0 27.2584 0.3838 27.9383 1.06697C28.6181 1.75014 29 2.67671 29 3.64286V6.02529H0V3.64286ZM0 9.061V30.3571C0 31.3233 0.381919 32.2499 1.06174 32.933C1.74156 33.6162 2.66359 34 3.625 34H25.375C26.3364 34 27.2584 33.6162 27.9383 32.933C28.6181 32.2499 29 31.3233 29 30.3571V9.061H0ZM5.78067 20.6429C5.7802 19.6484 5.94856 18.6612 6.2785 17.7237C7.00619 15.6531 8.4808 13.9325 10.4105 12.9023C12.3403 11.8721 14.5845 11.6073 16.6992 12.1604C18.8139 12.7135 20.645 14.0441 21.8301 15.889C23.0152 17.7339 23.4679 19.9587 23.0988 22.123C22.7297 24.2874 21.5656 26.2337 19.8368 27.5767C18.1081 28.9198 15.9406 29.5618 13.7633 29.3757C11.586 29.1896 9.55756 28.189 8.07931 26.5718C6.60107 24.9546 5.78075 22.8388 5.78067 20.6429ZM8.46317 19.9143C8.51059 19.6312 8.65628 19.3741 8.87439 19.1887C9.0925 19.0034 9.36892 18.9016 9.65458 18.9016H10.5101C12.3588 18.9016 13.4415 19.3557 14.4154 19.7613L14.5604 19.822C15.4715 20.2033 16.3923 20.5603 18.212 20.5603H19.4131C19.5885 20.5604 19.7618 20.5988 19.9209 20.673C20.08 20.7471 20.2212 20.8552 20.3345 20.9897C20.4479 21.1242 20.5308 21.2819 20.5774 21.4518C20.624 21.6217 20.6333 21.7998 20.6045 21.9737C20.3057 23.5663 19.3971 24.9775 18.0739 25.904C16.7508 26.8306 15.1188 27.1985 13.5286 26.9288C11.9384 26.659 10.517 25.7732 9.56982 24.4615C8.62263 23.1499 8.22528 21.5172 8.46317 19.9143Z" fill="black"/>
</svg>
