<svg width="136" height="133" viewBox="0 0 136 133" fill="none" xmlns="http://www.w3.org/2000/svg">
<path d="M61.9032 3.52489L77.2083 76.59C77.4686 77.8325 76.5203 79 75.2508 79H74.2787C73.3424 79 72.5314 78.3504 72.327 77.4366L61.5146 29.1047C61.3102 28.1909 60.4992 27.5413 59.5628 27.5413H37.3679C35.5648 27.5413 34.6824 25.343 35.9851 24.0963L58.5629 2.48998C59.6968 1.40493 61.5815 1.98886 61.9032 3.52489Z" fill="#FFA800" stroke="#FFA800"/>
<path d="M82.2983 79L76.418 52.6999L84.5035 50.5082L86.7086 65.1194L94.7941 57.8138L103.615 60.0054V79H97.7343L94.7941 74.6166V66.5805L82.2983 79Z" fill="#FFA800" stroke="#FFA800"/>
<path d="M80.9506 20.7213L102.319 27.132L97.3334 37.8164L85.9367 30.6934L92.3473 37.8164V46.3639H88.7858L75.2522 49.2131V46.3639L77.3891 42.0902L83.7998 39.9533L73.8276 27.132L80.9506 20.7213Z" fill="#FFA800" stroke="#FFA800"/>
<path d="M68.535 72.5092C65.836 73.1546 63.0363 73.2621 60.2958 72.8255C57.5552 72.3888 54.9275 71.4167 52.5627 69.9646C50.1979 68.5125 48.1422 66.6088 46.5131 64.3622C44.8839 62.1156 43.7133 59.5701 43.0679 56.8711C42.4225 54.1721 42.3151 51.3724 42.7517 48.6319C43.1883 45.8914 44.1604 43.2637 45.6125 40.8988C47.0647 38.534 48.9684 36.4783 51.2149 34.8492C53.4615 33.2201 56.007 32.0494 58.706 31.404L63.6205 51.9566L68.535 72.5092Z" fill="#FFA800"/>
<path d="M41.6389 60.5195C41.7649 59.8333 42.0249 59.1786 42.4039 58.5929C42.7829 58.0071 43.2735 57.5018 43.8479 57.1056C44.4222 56.7095 45.0689 56.4304 45.7511 56.2842C46.4332 56.138 47.1375 56.1276 47.8237 56.2536C48.5099 56.3796 49.1646 56.6396 49.7503 57.0186C50.3361 57.3976 50.8415 57.8882 51.2376 58.4626C51.6337 59.0369 51.9128 59.6836 52.059 60.3658C52.2052 61.0479 52.2156 61.7522 52.0896 62.4384L46.8643 61.479L41.6389 60.5195Z" fill="black"/>
<circle cx="47.9263" cy="50.5082" r="3.88525" fill="white"/>
<circle cx="56.9917" cy="49.2131" r="3.88525" fill="white"/>
<circle cx="2.59016" cy="2.59016" r="2.59016" transform="matrix(1 0 0 -1 45.3359 53.0984)" fill="black"/>
<circle cx="2.59016" cy="2.59016" r="2.59016" transform="matrix(1 0 0 -1 54.4019 51.8032)" fill="black"/>
<circle cx="0.647541" cy="0.647541" r="0.647541" transform="matrix(1 0 0 -1 45.3359 50.5082)" fill="white"/>
<circle cx="0.647541" cy="0.647541" r="0.647541" transform="matrix(1 0 0 -1 54.4019 49.2131)" fill="white"/>
<path d="M53.2508 47.3964C53.3551 46.8284 53.5703 46.2865 53.884 45.8017C54.1977 45.3168 54.6038 44.8985 55.0792 44.5706C55.5546 44.2428 56.0899 44.0117 56.6546 43.8907C57.2192 43.7697 57.8022 43.7611 58.3702 43.8654C58.9382 43.9697 59.4801 44.1848 59.9649 44.4986C60.4497 44.8123 60.868 45.2184 61.1959 45.6938C61.5238 46.1692 61.7548 46.7045 61.8758 47.2691C61.9969 47.8338 62.0055 48.4168 61.9012 48.9848L57.576 48.1906L53.2508 47.3964Z" fill="#FFA800"/>
<path d="M43.2698 50.5476C43.0667 50.0071 42.972 49.4318 42.9912 48.8546C43.0104 48.2774 43.1431 47.7097 43.3818 47.1838C43.6204 46.6579 43.9602 46.1842 44.3819 45.7897C44.8036 45.3951 45.2989 45.0875 45.8395 44.8844C46.3801 44.6813 46.9554 44.5866 47.5326 44.6058C48.1097 44.625 48.6775 44.7578 49.2033 44.9964C49.7292 45.235 50.203 45.5749 50.5975 45.9966C50.992 46.4183 51.2996 46.9135 51.5028 47.4541L47.3863 49.0009L43.2698 50.5476Z" fill="#FFA800"/>
<path d="M10.9512 117.762V125.213H8.99609V122.342H7.21875V120.756H8.99609V117.762H10.9512ZM6.61719 125.445C9.32422 125.445 10.9785 126.348 10.9922 127.893C10.9785 129.424 9.32422 130.34 6.61719 130.34C3.9375 130.34 2.2832 129.424 2.2832 127.893C2.2832 126.348 3.9375 125.445 6.61719 125.445ZM6.61719 126.936C5.04492 126.936 4.23828 127.236 4.23828 127.893C4.23828 128.549 5.04492 128.836 6.61719 128.836C8.2168 128.836 9.02344 128.549 9.03711 127.893C9.02344 127.236 8.2168 126.936 6.61719 126.936ZM7.57422 118.473V120.045H5.19531C5.29102 121.392 6.09766 122.772 7.99805 123.395L7.04102 124.939C5.67383 124.502 4.75781 123.641 4.21094 122.574C3.66406 123.784 2.69336 124.762 1.23047 125.254L0.205078 123.695C2.23535 123.039 3.06934 121.508 3.17188 120.045H0.765625V118.473H7.57422ZM22.4219 117.762V120.1H24.0488V121.713H22.4219V123.996H20.4531V117.762H22.4219ZM18.8398 118.309V123.586H12.7559V118.309H18.8398ZM14.6973 119.867V122.041H16.8984V119.867H14.6973ZM22.4219 124.461V128.002H15.9551V128.645H22.75V130.176H14.0137V126.594H20.4531V125.965H14V124.461H22.4219ZM39.1289 127.359V128.959H27.6582V127.359H32.4023V125.609H28.9434V121.289H35.9023V120.113H28.9297V118.541H37.8438V122.82H30.9121V124.023H38.1309V125.609H34.3438V127.359H39.1289ZM49.834 118.855V120.441C49.834 122.219 49.834 123.9 49.3965 126.457L47.4004 126.293C47.8652 123.928 47.8652 122.164 47.8652 120.441H40.9336V118.855H49.834ZM51.2012 127.127V128.727H39.7578V127.127H51.2012ZM55.248 118.623C57.1758 118.623 58.584 120.359 58.5977 123.107C58.584 125.896 57.1758 127.633 55.248 127.633C53.293 127.633 51.8711 125.896 51.8848 123.107C51.8711 120.359 53.293 118.623 55.248 118.623ZM55.248 120.4C54.373 120.4 53.7852 121.316 53.7988 123.107C53.7852 124.926 54.373 125.842 55.248 125.842C56.1367 125.842 56.6973 124.926 56.7109 123.107C56.6973 121.316 56.1367 120.4 55.248 120.4ZM61.8105 117.762V122.41H63.5879V124.037H61.8105V130.312H59.8418V117.762H61.8105ZM75.3867 123.189V124.789H70.6289V125.924H68.6602V124.789H63.957V123.189H75.3867ZM70.6426 126.566C70.6426 127.496 71.6816 128.549 74.6074 128.781L74.0059 130.244C71.832 130.066 70.3896 129.39 69.6309 128.426C68.8721 129.369 67.4502 130.073 65.3105 130.244L64.668 128.781C67.5391 128.549 68.6191 127.441 68.6191 126.566V126.375H70.6426V126.566ZM69.6719 117.898C72.502 117.898 74.2656 118.76 74.2793 120.291C74.2656 121.795 72.502 122.684 69.6719 122.684C66.8691 122.684 65.0645 121.795 65.0645 120.291C65.0645 118.76 66.8691 117.898 69.6719 117.898ZM69.6719 119.348C67.9902 119.348 67.1016 119.662 67.1152 120.291C67.1016 120.879 67.9902 121.193 69.6719 121.193C71.3262 121.193 72.2422 120.879 72.2422 120.291C72.2422 119.662 71.3262 119.348 69.6719 119.348ZM89.1406 117.762V122.588H90.918V124.215H89.1406V130.312H87.1992V117.762H89.1406ZM86.4609 119.594V121.152H79.1191V119.594H81.8398V117.967H83.8086V119.594H86.4609ZM82.8242 121.754C84.6562 121.754 86.0508 123.012 86.0645 124.775C86.0508 126.553 84.6562 127.797 82.8242 127.797C80.9375 127.797 79.5566 126.553 79.5703 124.775C79.5566 123.012 80.9375 121.754 82.8242 121.754ZM82.8242 123.34C82.0176 123.354 81.4434 123.873 81.457 124.775C81.4434 125.705 82.0176 126.197 82.8242 126.197C83.6035 126.197 84.1641 125.705 84.1777 124.775C84.1641 123.873 83.6035 123.354 82.8242 123.34ZM96.3047 120.428C96.291 122.738 97.1797 125.049 99.4082 125.965L98.2461 127.551C96.8379 126.922 95.8945 125.753 95.334 124.283C94.7803 125.903 93.7959 127.195 92.2715 127.879L91.0957 126.238C93.3926 125.295 94.2949 122.889 94.3086 120.428V118.691H96.3047V120.428ZM101.828 117.762V130.34H99.8457V117.762H101.828ZM115.021 122.438V124.037H113.34V130.271H111.371V117.762H113.34V122.438H115.021ZM105.711 118.951V125.623C107.242 125.589 108.903 125.438 110.633 125.104L110.838 126.73C108.76 127.154 106.695 127.25 104.863 127.25H103.742V118.951H105.711ZM126.957 127.291V128.891H115.486V127.291H117.961V124.311C117.024 123.716 116.457 122.827 116.457 121.727C116.457 119.676 118.467 118.322 121.201 118.322C123.936 118.322 125.973 119.676 125.973 121.727C125.973 122.807 125.419 123.682 124.51 124.27V127.291H126.957ZM121.201 119.867C119.492 119.854 118.398 120.523 118.412 121.727C118.398 122.916 119.492 123.613 121.201 123.613C122.896 123.613 124.018 122.916 124.018 121.727C124.018 120.523 122.896 119.854 121.201 119.867ZM119.902 127.291H122.514V125.021C122.097 125.097 121.659 125.131 121.201 125.131C120.743 125.131 120.312 125.097 119.902 125.021V127.291ZM129.842 125.787C129.842 124.133 130.266 123.627 131.045 123.135C131.646 122.752 132.111 122.369 132.111 121.768C132.111 121.166 131.633 120.783 131.045 120.783C130.471 120.783 129.938 121.193 129.924 121.877H127.75C127.777 119.867 129.268 118.965 131.059 118.965C133.041 118.965 134.477 119.922 134.477 121.658C134.477 122.807 133.861 123.518 132.945 124.064C132.207 124.502 131.852 124.912 131.852 125.787V125.979H129.842V125.787ZM130.881 129.137C130.197 129.137 129.637 128.59 129.65 127.893C129.637 127.223 130.197 126.676 130.881 126.676C131.537 126.676 132.111 127.223 132.125 127.893C132.111 128.59 131.537 129.137 130.881 129.137Z" fill="black"/>
</svg>
