<svg width="31" height="28" viewBox="0 0 31 28" fill="none" xmlns="http://www.w3.org/2000/svg">
<path d="M9.3 28V24.8889H3.1C2.2475 24.8889 1.51797 24.5845 0.9114 23.9758C0.304833 23.367 0.00103333 22.6344 0 21.7778V3.11111C0 2.25556 0.3038 1.52341 0.9114 0.914667C1.519 0.305926 2.24853 0.00103704 3.1 0H27.9C28.7525 0 29.4825 0.304889 30.0901 0.914667C30.6977 1.52444 31.001 2.25659 31 3.11111V21.7778C31 22.6333 30.6967 23.366 30.0901 23.9758C29.4836 24.5856 28.7535 24.8899 27.9 24.8889H21.7V28H9.3ZM3.1 21.7778H27.9V3.11111H3.1V21.7778Z" fill="black"/>
</svg>
