
<svg width="23" height="23" viewBox="0 0 23 23" fill="none" xmlns="http://www.w3.org/2000/svg">
<path fill-rule="evenodd" clip-rule="evenodd" d="M11.5 2.3C9.89088 2.2997 8.30981 2.72146 6.91463 3.52317C5.51944 4.32488 4.35893 5.47851 3.54893 6.8689C2.73892 8.25928 2.30776 9.83781 2.29848 11.4469C2.28919 13.056 2.70211 14.6394 3.49601 16.039C4.03261 15.3417 4.7224 14.777 5.51206 14.3888C6.30171 14.0005 7.17007 13.7991 8.05 13.8H14.95C15.8299 13.7991 16.6983 14.0005 17.4879 14.3888C18.2776 14.777 18.9674 15.3417 19.504 16.039C20.2979 14.6394 20.7108 13.056 20.7015 11.4469C20.6922 9.83781 20.2611 8.25928 19.4511 6.8689C18.6411 5.47851 17.4806 4.32488 16.0854 3.52317C14.6902 2.72146 13.1091 2.2997 11.5 2.3ZM20.6344 18.4874C20.7786 18.2996 20.9166 18.1071 21.0484 17.9101C22.3234 16.0157 23.003 13.7835 23 11.5C23 5.14855 17.8514 0 11.5 0C5.14856 0 1.17938e-05 5.14855 1.17938e-05 11.5C-0.00361223 14.0263 0.828057 16.4829 2.36556 18.4874L2.35981 18.5081L2.76806 18.983C3.84663 20.244 5.1858 21.2561 6.69327 21.9496C8.20075 22.6431 9.84067 23.0015 11.5 23C11.7484 23 11.9953 22.9923 12.2406 22.977C14.3157 22.8461 16.3158 22.1524 18.0262 20.9702C18.8443 20.4059 19.5857 19.738 20.2319 18.983L20.6402 18.5081L20.6344 18.4874ZM11.5 4.6C10.585 4.6 9.70748 4.96348 9.06048 5.61048C8.41348 6.25748 8.05 7.135 8.05 8.05C8.05 8.96499 8.41348 9.84252 9.06048 10.4895C9.70748 11.1365 10.585 11.5 11.5 11.5C12.415 11.5 13.2925 11.1365 13.9395 10.4895C14.5865 9.84252 14.95 8.96499 14.95 8.05C14.95 7.135 14.5865 6.25748 13.9395 5.61048C13.2925 4.96348 12.415 4.6 11.5 4.6Z" fill="#FFA800"/>
</svg>
