<svg width="40" height="28" viewBox="0 0 40 28" fill="none" xmlns="http://www.w3.org/2000/svg">
<path d="M20 28C18.8333 28 17.8472 27.602 17.0417 26.8059C16.2361 26.0098 15.8333 25.0353 15.8333 23.8824C15.8333 22.7294 16.2361 21.7549 17.0417 20.9588C17.8472 20.1627 18.8333 19.7647 20 19.7647C21.1667 19.7647 22.1528 20.1627 22.9583 20.9588C23.7639 21.7549 24.1667 22.7294 24.1667 23.8824C24.1667 25.0353 23.7639 26.0098 22.9583 26.8059C22.1528 27.602 21.1667 28 20 28ZM10.5833 18.6941L7.08333 15.1529C8.72222 13.5333 10.6461 12.2503 12.855 11.3038C15.0639 10.3573 17.4456 9.88345 20 9.88235C22.5544 9.88126 24.9367 10.3616 27.1467 11.3235C29.3567 12.2854 31.28 13.5893 32.9167 15.2353L29.4167 18.6941C28.1944 17.4863 26.7778 16.5392 25.1667 15.8529C23.5556 15.1667 21.8333 14.8235 20 14.8235C18.1667 14.8235 16.4444 15.1667 14.8333 15.8529C13.2222 16.5392 11.8056 17.4863 10.5833 18.6941ZM3.5 11.6941L0 8.23529C2.55556 5.6549 5.54167 3.63725 8.95833 2.18235C12.375 0.727451 16.0556 0 20 0C23.9444 0 27.625 0.727451 31.0417 2.18235C34.4583 3.63725 37.4444 5.6549 40 8.23529L36.5 11.6941C34.3611 9.58039 31.8822 7.92675 29.0633 6.73318C26.2444 5.53961 23.2233 4.94227 20 4.94118C16.7767 4.94008 13.7561 5.53741 10.9383 6.73318C8.12056 7.92894 5.64111 9.58259 3.5 11.6941Z" fill="black"/>
</svg>
